<?xml version="1.0" encoding="UTF-8" standalone="no"?>
<svg
   width="47.999966"
   height="48"
   fill="none"
   viewBox="0 0 47.999966 48"
   version="1.1"
   id="svg13"
   sodipodi:docname="JetBrains_AI_Assistant.svg"
   inkscape:version="1.2.2 (b0a8486541, 2022-12-01)"
   xmlns:inkscape="http://www.inkscape.org/namespaces/inkscape"
   xmlns:sodipodi="http://sodipodi.sourceforge.net/DTD/sodipodi-0.dtd"
   xmlns="http://www.w3.org/2000/svg"
   xmlns:svg="http://www.w3.org/2000/svg">
  <sodipodi:namedview
     id="namedview15"
     pagecolor="#ffffff"
     bordercolor="#666666"
     borderopacity="1.0"
     inkscape:showpageshadow="2"
     inkscape:pageopacity="0.0"
     inkscape:pagecheckerboard="0"
     inkscape:deskcolor="#d1d1d1"
     showgrid="false"
     inkscape:zoom="4.4414716"
     inkscape:cx="112.23758"
     inkscape:cy="24.20369"
     inkscape:window-width="1854"
     inkscape:window-height="1011"
     inkscape:window-x="66"
     inkscape:window-y="32"
     inkscape:window-maximized="1"
     inkscape:current-layer="svg13" />
  <defs
     id="defs7">
    <linearGradient
       id="a"
       x1="4.7530899"
       x2="70.613602"
       y1="8.63622"
       y2="59.748001"
       gradientUnits="userSpaceOnUse"
       gradientTransform="translate(-0.006836)">
      <stop
         stop-color="#955AE0"
         id="stop2" />
      <stop
         offset="1"
         stop-color="#4D67F0"
         id="stop4" />
    </linearGradient>
  </defs>
  <path
     fill="url(#a)"
     d="m 3.720004,8.16 c 4.32,-2.46 10.25996,-3.66 15.35996,-3.66 14.94,0 24.42,6.96 24.42,16.38 0,7.5 -6.54,12.12 -15.24,12.12 -7.02,0 -12.24,-2.58 -12.24,-6 0,-3.24 3.3,-4.8 7.98,-3 l 1.2,-3.66 c -7.26,-2.34 -13.26,0.96 -13.26,6.66 0,5.7 7.08,9.78 16.56,9.78 11.28,0 19.5,-6.24 19.5,-15.9 0,-12.06 -11.4,-20.88 -28.92,-20.88 -5.64,0 -11.99996,1.44 -17.21996,4.26 z m 40.55996,31.68 c -4.32,2.46 -10.26,3.66 -15.36,3.66 -14.94,0 -24.41996,-6.96 -24.41996,-16.38 0,-7.5 6.53996,-12.12 15.23996,-12.12 7.02,0 12.24,2.58 12.24,6 0,3.24 -3.3,4.8 -7.98,3 l -1.2,3.66 c 7.26,2.34 13.26,-0.96 13.26,-6.66 0,-5.7 -7.08,-9.78 -16.56,-9.78 C 8.220004,11.22 0,17.46 0,27.12 0,39.18 11.399964,48 28.919964,48 c 5.64,0 12,-1.44 17.22,-4.26 z"
     id="path11"
     style="fill:url(#a)" />
</svg>
