<?xml version="1.0" encoding="UTF-8" standalone="no"?>
<!-- Created with Inkscape (http://www.inkscape.org/) -->

<svg
   xmlns:dc="http://purl.org/dc/elements/1.1/"
   xmlns:cc="http://creativecommons.org/ns#"
   xmlns:rdf="http://www.w3.org/1999/02/22-rdf-syntax-ns#"
   xmlns:svg="http://www.w3.org/2000/svg"
   xmlns="http://www.w3.org/2000/svg"
   xmlns:sodipodi="http://sodipodi.sourceforge.net/DTD/sodipodi-0.dtd"
   xmlns:inkscape="http://www.inkscape.org/namespaces/inkscape"
   width="18.674328mm"
   height="6.313118mm"
   viewBox="0 0 18.674328 6.313118"
   version="1.1"
   id="svg2043"
   inkscape:version="0.92.5 (2060ec1f9f, 2020-04-08)"
   sodipodi:docname="failed-ci.svg">
  <defs
     id="defs2037" />
  <sodipodi:namedview
     id="base"
     pagecolor="#ffffff"
     bordercolor="#666666"
     borderopacity="1.0"
     inkscape:pageopacity="0.0"
     inkscape:pageshadow="2"
     inkscape:zoom="3.959798"
     inkscape:cx="33.645719"
     inkscape:cy="19.808117"
     inkscape:document-units="mm"
     inkscape:current-layer="layer1"
     showgrid="false"
     fit-margin-top="0"
     fit-margin-left="0"
     fit-margin-right="0"
     fit-margin-bottom="0"
     inkscape:window-width="1848"
     inkscape:window-height="1016"
     inkscape:window-x="72"
     inkscape:window-y="27"
     inkscape:window-maximized="1" />
  <metadata
     id="metadata2040">
    <rdf:RDF>
      <cc:Work
         rdf:about="">
        <dc:format>image/svg+xml</dc:format>
        <dc:type
           rdf:resource="http://purl.org/dc/dcmitype/StillImage" />
        <dc:title></dc:title>
      </cc:Work>
    </rdf:RDF>
  </metadata>
  <g
     inkscape:label="Layer 1"
     inkscape:groupmode="layer"
     id="layer1"
     transform="translate(-13.848467,-126.9002)">
    <text
       xml:space="preserve"
       style="font-style:normal;font-variant:normal;font-weight:normal;font-stretch:normal;font-size:4.23333311px;line-height:1.25;font-family:sans-serif;-inkscape-font-specification:'sans-serif, Normal';font-variant-ligatures:normal;font-variant-caps:normal;font-variant-numeric:normal;font-feature-settings:normal;text-align:start;letter-spacing:0px;word-spacing:0px;writing-mode:lr-tb;text-anchor:start;fill:#dd2b0e;fill-opacity:1;stroke:none;stroke-width:0.26458332"
       x="19.248777"
       y="131.62697"
       id="text2624"><tspan
         sodipodi:role="line"
         id="tspan2622"
         x="19.248777"
         y="131.62697"
         style="font-style:normal;font-variant:normal;font-weight:normal;font-stretch:normal;font-size:4.23333311px;font-family:sans-serif;-inkscape-font-specification:'sans-serif, Normal';font-variant-ligatures:normal;font-variant-caps:normal;font-variant-numeric:normal;font-feature-settings:normal;text-align:start;writing-mode:lr-tb;text-anchor:start;fill:#dd2b0e;fill-opacity:1;stroke-width:0.26458332">failed</tspan></text>
    <rect
       style="fill:none;fill-opacity:1;stroke:#dd2b0e;stroke-width:0.5;stroke-miterlimit:4;stroke-dasharray:none;stroke-dashoffset:0;stroke-opacity:1"
       id="rect2626"
       width="18.174328"
       height="5.813118"
       x="14.098467"
       y="127.1502"
       ry="1.1358974" />
  </g>
  <g
     style="fill:#000000;fill-opacity:1;fill-rule:evenodd"
     id="g945"
     transform="matrix(0.26458333,0,0,0.26458333,1.2710648,1.3378985)">
    <path
       inkscape:connector-curvature="0"
       d="M 0,7 A 7,7 0 1 1 14,7 7,7 0 0 1 0,7 Z"
       id="path939"
       style="fill:#dd2b0e;fill-opacity:1" />
    <path
       inkscape:connector-curvature="0"
       d="M 13,7 A 6,6 0 1 0 1,7 6,6 0 0 0 13,7 Z"
       id="path941"
       style="fill:#fefefe;fill-opacity:1" />
    <path
       inkscape:connector-curvature="0"
       d="M 7,5.969 5.599,4.568 A 0.29,0.29 0 0 0 5.186,4.572 L 4.572,5.186 A 0.294,0.294 0 0 0 4.568,5.599 L 5.968,7 4.568,8.401 a 0.29,0.29 0 0 0 0.004,0.413 l 0.614,0.614 c 0.113,0.114 0.3,0.117 0.413,0.004 L 7,8.032 8.401,9.432 A 0.29,0.29 0 0 0 8.814,9.428 L 9.428,8.814 A 0.294,0.294 0 0 0 9.432,8.401 L 8.032,7 9.432,5.599 A 0.29,0.29 0 0 0 9.428,5.186 L 8.814,4.572 A 0.294,0.294 0 0 0 8.401,4.568 L 7,5.968 Z"
       id="path943"
       style="fill:#dd2b0e;fill-opacity:1" />
  </g>
</svg>
