<?xml version="1.0" encoding="UTF-8" standalone="no"?>
<svg
   xmlns:dc="http://purl.org/dc/elements/1.1/"
   xmlns:cc="http://creativecommons.org/ns#"
   xmlns:rdf="http://www.w3.org/1999/02/22-rdf-syntax-ns#"
   xmlns:svg="http://www.w3.org/2000/svg"
   xmlns="http://www.w3.org/2000/svg"
   xmlns:sodipodi="http://sodipodi.sourceforge.net/DTD/sodipodi-0.dtd"
   xmlns:inkscape="http://www.inkscape.org/namespaces/inkscape"
   version="1.1"
   x="0px"
   y="0px"
   viewBox="0 0 282.95978 294.02103"
   xml:space="preserve"
   id="svg16"
   sodipodi:docname="junit5-db.svg"
   width="282.95978"
   height="294.02103"
   inkscape:version="0.92.5 (2060ec1f9f, 2020-04-08)"><metadata
   id="metadata22"><rdf:RDF><cc:Work
       rdf:about=""><dc:format>image/svg+xml</dc:format><dc:type
         rdf:resource="http://purl.org/dc/dcmitype/StillImage" /><dc:title></dc:title></cc:Work></rdf:RDF></metadata><defs
   id="defs20" /><sodipodi:namedview
   pagecolor="#ffffff"
   bordercolor="#666666"
   borderopacity="1"
   objecttolerance="10"
   gridtolerance="10"
   guidetolerance="10"
   inkscape:pageopacity="0"
   inkscape:pageshadow="2"
   inkscape:window-width="1844"
   inkscape:window-height="895"
   id="namedview18"
   showgrid="false"
   fit-margin-top="5"
   fit-margin-left="5"
   fit-margin-right="5"
   fit-margin-bottom="5"
   inkscape:zoom="1.84375"
   inkscape:cx="105.71936"
   inkscape:cy="188.93098"
   inkscape:window-x="72"
   inkscape:window-y="27"
   inkscape:window-maximized="0"
   inkscape:current-layer="svg16" />
<style
   type="text/css"
   id="style2">
	.st0{fill:none;stroke:#DC524A;stroke-width:5;stroke-miterlimit:10;}
	.st1{fill:#DC524A;}
	.st2{fill:#25A162;}
	.st3{fill:#FFFFFF;}
</style>
<g
   transform="matrix(1.3700507,0,0,1.3700507,5.82825,89.02103)"
   id="g12"><path
     class="green"
     d="M 58.33,101.79 C 29.54,101.79 17,99.42 0,95.46 v 44 l 0.8,0.2 c 16.4,4 28.8,6.32 57.53,6.32 28.73,0 41.35,-2.38 57.74,-6.37 l 0.81,-0.2 v -44 c -16.95,3.99 -29.61,6.38 -58.55,6.38 z"
     id="path6"
     inkscape:connector-curvature="0"
     style="fill:#6db33f" /><path
     class="green"
     d="M 58.33,0 C 29.6,0 17.2,2.36 0.8,6.32 L 0,6.52 V 53 c 17,-4 29.54,-6.33 58.33,-6.33 28.79,0 41.6,2.39 58.55,6.39 V 6.57 l -0.81,-0.2 C 99.68,2.38 87.21,0 58.33,0 Z"
     id="path8"
     inkscape:connector-curvature="0"
     style="fill:#6db33f" /><path
     class="green"
     d="m 116.88,55.58 -0.81,-0.2 C 99.68,51.39 87.21,49 58.33,49 29.45,49 17.2,51.37 0.8,55.32 L 0,55.52 v 37.42 l 0.8,0.19 c 16.4,4 28.8,6.33 57.53,6.33 28.73,0 41.35,-2.39 57.74,-6.38 l 0.81,-0.2 z"
     id="path10"
     inkscape:connector-curvature="0"
     style="fill:#6db33f" /></g><g
   id="Layer_4"
   transform="translate(4.000003,189.9)">
	<path
   class="st0"
   d="M 65,-132.5"
   id="path4"
   inkscape:connector-curvature="0"
   style="fill:none;stroke:#dc524a;stroke-width:5;stroke-miterlimit:10" />
</g>
<g
   id="Layer_2"
   transform="matrix(14.184397,0,0,14.285714,62.815603,-10.714285)">
	<path
   class="st1"
   d="M 10.2,1.4 C 9.5,1.2 8.8,1.1 8,1.1 c -3.9,0 -7,3.1 -7,7 0,2.7 1.5,5 3.7,6.2 L 4.8,11 c 0,0 2,0.9 3.2,0.5 C 9.2,11.1 9.2,10.7 9.3,9.9 9.4,9.1 8.6,8.1 7.6,8.1 6.3,8.1 5.5,8.3 5.5,8.3 L 4.9,7.8 5.2,3.1 h 5.1 z"
   id="path7"
   inkscape:connector-curvature="0"
   style="fill:#dc524a" />
	<path
   class="st2"
   d="m 4.7,14.3 c 1,0.5 2.1,0.8 3.3,0.8 3.9,0 7.1,-3.1 7.1,-7 C 15.1,5.6 13.6,3.6 11.8,2.3 11.4,2 10.9,1.7 10.4,1.5 l 0.1,3.2 H 6.7 L 6.5,6.9 c 0,0 4.3,-1 4.4,3 C 11,12.7 8.3,12.9 7,13 5.3,13 4.4,12.4 4.6,12.4 Z"
   id="path9"
   inkscape:connector-curvature="0"
   style="fill:#25a162" />
	<path
   class="st2"
   d="M 10.2,3.2"
   id="path11"
   inkscape:connector-curvature="0"
   style="fill:#25a162" />
	<path
   class="st3"
   d="M 10.3,3 C 9.8,3 5.2,3.1 5.2,3.1 L 4.9,7.7 5.6,8.3 c 0,0 1.5,-0.4 2.5,-0.1 0.9,0.4 1.2,0.9 1.2,1.8 0,0.9 -0.5,1.3 -1.2,1.5 -0.6,0.2 -1.5,0.1 -1.8,0 C 5.9,11.4 4.8,11 4.8,11 l -0.1,1.5 c 0,0 0.6,0.4 1.9,0.5 1.3,0.1 3,-0.1 4,-1.4 C 11.5,10.4 11.4,7.2 8.4,6.8 7.4,6.7 6.6,6.9 6.6,6.9 L 6.8,4.6 h 3.7 z"
   id="path13"
   inkscape:connector-curvature="0"
   style="fill:#ffffff" />
</g>
</svg>