<?xml version="1.0" encoding="UTF-8" standalone="no"?>
<svg
   xmlns:dc="http://purl.org/dc/elements/1.1/"
   xmlns:cc="http://creativecommons.org/ns#"
   xmlns:rdf="http://www.w3.org/1999/02/22-rdf-syntax-ns#"
   xmlns:svg="http://www.w3.org/2000/svg"
   xmlns="http://www.w3.org/2000/svg"
   xmlns:sodipodi="http://sodipodi.sourceforge.net/DTD/sodipodi-0.dtd"
   xmlns:inkscape="http://www.inkscape.org/namespaces/inkscape"
   viewBox="-80 -25 170.13153 210"
   preserveAspectRatio="true"
   version="1.1"
   id="svg16"
   sodipodi:docname="spring-data-db.svg"
   width="170.13153"
   height="210"
   inkscape:version="0.92.5 (2060ec1f9f, 2020-04-08)"
   shape-rendering="crispEdges">
  <metadata
     id="metadata20">
    <rdf:RDF>
      <cc:Work
         rdf:about="">
        <dc:format>image/svg+xml</dc:format>
        <dc:type
           rdf:resource="http://purl.org/dc/dcmitype/StillImage" />
        <dc:title></dc:title>
      </cc:Work>
    </rdf:RDF>
  </metadata>
  <sodipodi:namedview
     pagecolor="#ffffff"
     bordercolor="#666666"
     borderopacity="1"
     objecttolerance="10"
     gridtolerance="10"
     guidetolerance="10"
     inkscape:pageopacity="0"
     inkscape:pageshadow="2"
     inkscape:window-width="1848"
     inkscape:window-height="1016"
     id="namedview18"
     showgrid="false"
     fit-margin-top="5"
     fit-margin-left="5"
     fit-margin-right="5"
     fit-margin-bottom="5"
     inkscape:zoom="0.33545455"
     inkscape:cx="-381.76151"
     inkscape:cy="136.97794"
     inkscape:window-x="72"
     inkscape:window-y="27"
     inkscape:window-maximized="1"
     inkscape:current-layer="svg16"
     inkscape:pagecheckerboard="false" />
  <defs
     id="defs4">
    <style
       id="style2">.green{fill:#6db33f;}</style>
  </defs>
  <g
     transform="matrix(1.3700507,0,0,1.3700507,-75,-20)"
     id="g12">
    <path
       class="green"
       d="M 58.33,101.79 C 29.54,101.79 17,99.42 0,95.46 v 44 l 0.8,0.2 c 16.4,4 28.8,6.32 57.53,6.32 28.73,0 41.35,-2.38 57.74,-6.37 l 0.81,-0.2 v -44 c -16.95,3.99 -29.61,6.38 -58.55,6.38 z"
       id="path6"
       inkscape:connector-curvature="0"
       style="fill:#6db33f" />
    <path
       class="green"
       d="M 58.33,0 C 29.6,0 17.2,2.36 0.8,6.32 L 0,6.52 V 53 c 17,-4 29.54,-6.33 58.33,-6.33 28.79,0 41.6,2.39 58.55,6.39 V 6.57 l -0.81,-0.2 C 99.68,2.38 87.21,0 58.33,0 Z"
       id="path8"
       inkscape:connector-curvature="0"
       style="fill:#6db33f" />
    <path
       class="green"
       d="m 116.88,55.58 -0.81,-0.2 C 99.68,51.39 87.21,49 58.33,49 29.45,49 17.2,51.37 0.8,55.32 L 0,55.52 v 37.42 l 0.8,0.19 c 16.4,4 28.8,6.33 57.53,6.33 28.73,0 41.35,-2.39 57.74,-6.38 l 0.81,-0.2 z"
       id="path10"
       inkscape:connector-curvature="0"
       style="fill:#6db33f" />
  </g>
</svg>
